<mxfile host="app.diagrams.net" modified="2024-02-21T15:21:20.022Z" agent="Mozilla/5.0 (Windows NT 10.0; Win64; x64) AppleWebKit/537.36 (KHTML, like Gecko) Chrome/121.0.0.0 Safari/537.36" version="23.1.5" etag="jK5AaxCP7PgRUuhI0wFC" type="github">
  <diagram name="Page-1" id="PK7Wjg7-NS7cQLSyFA_n">
    <mxGraphModel>
      <root>
        <mxCell id="0" />
        <mxCell id="1" parent="0" />
      </root>
    </mxGraphModel>
  </diagram>
</mxfile>
